<svg xmlns="http://www.w3.org/2000/svg" viewBox="0 0 512 512">
  <defs>
    <path id="tag" d="M21 5H43L49 11V55Q49 59 45 59H19Q15 59 15 55V11Z"/>
    <clipPath id="body"><use href="#tag"/></clipPath>
    <mask id="punch" maskUnits="userSpaceOnUse" x="-20" y="-40" width="104" height="110">
      <rect x="-20" y="-40" width="104" height="110" fill="#fff"/>
      <circle cx="32" cy="13.5" r="3.1" fill="#000"/>
    </mask>
    <filter id="shadow" x="-30%" y="-30%" width="160%" height="160%">
      <feDropShadow dx="0" dy="2.2" stdDeviation="2.4" flood-color="#000" flood-opacity="0.35"/>
    </filter>
  </defs>
  <rect width="512" height="512" fill="#18222E"/>
  <g transform="translate(256 262) rotate(-7) scale(6) translate(-32 -32)">
    <g mask="url(#punch)" filter="url(#shadow)">
      <use href="#tag" fill="#F7F4EC"/>
      <g clip-path="url(#body)">
        <rect x="18.5" y="22.5" width="27" height="1.1" rx="0.55" fill="#1D2530" fill-opacity="0.8"/>
        <rect x="18.5" y="28" width="20" height="0.7" rx="0.35" fill="#1D2530" fill-opacity="0.3"/>
        <rect x="18.5" y="32.6" width="24" height="0.7" rx="0.35" fill="#1D2530" fill-opacity="0.3"/>
        <rect x="10" y="40" width="44" height="6.3" fill="#D32F45"/>
        <rect x="10" y="46.3" width="44" height="6.3" fill="#F2BE3A"/>
        <rect x="10" y="52.6" width="44" height="8" fill="#2F9A5C"/>
        <path d="M10 46.3H54M10 52.6H54" stroke="#fff" stroke-opacity="0.6" stroke-width="0.45" stroke-dasharray="1.2 1"/>
      </g>
    </g>
    <path d="M30.6 9.6C27 1 22 -8 18 -20M33.4 9.6C37 1 42 -8 46 -20" fill="none" stroke="#E8EDF2" stroke-opacity="0.6" stroke-width="0.5" stroke-linecap="round"/>
    <circle cx="32" cy="13.5" r="4.2" fill="none" stroke="#DCD4C0" stroke-width="1.5"/>
  </g>
</svg>
